HIERARCHY
ROOT hips
{
	OFFSET 0.000000 104.274902 0.000000
	CHANNELS 6 Xposition Yposition Zposition Xrotation Yrotation Zrotation
	JOINT spine
	{
		OFFSET 0.000000 10.181549 0.131524
		CHANNELS 6 Xposition Yposition Zposition Xrotation Yrotation Zrotation
		JOINT chest
		{
			OFFSET 0.000000 9.893990 -1.470706
			CHANNELS 3 Xrotation Yrotation Zrotation
			JOINT upperChest
			{
				OFFSET 0.000000 9.220787 -1.370637
				CHANNELS 3 Xrotation Yrotation Zrotation
				JOINT neck
				{
					OFFSET 0.000000 16.740372 -2.049022
					CHANNELS 6 Xposition Yposition Zposition Xrotation Yrotation Zrotation
					JOINT head
					{
						OFFSET 0.000000 9.617859 1.684976
						CHANNELS 6 Xposition Yposition Zposition Xrotation Yrotation Zrotation
						JOINT headEnd
						{
							OFFSET 0.000000 22.037384 7.501072
							CHANNELS 6 Xposition Yposition Zposition Xrotation Yrotation Zrotation
							End Site
							{
								OFFSET 0.000000 23.106567 -2.828246
							}
						}
					}
				}
				JOINT rightShoulder
				{
					OFFSET -4.570000 11.014877 -2.160840
					CHANNELS 6 Xposition Yposition Zposition Xrotation Yrotation Zrotation
					JOINT rightUpperArm
					{
						OFFSET -10.592867 -0.524796 -2.232105
						CHANNELS 3 Xrotation Yrotation Zrotation
						JOINT rightLowerArm
						{
							OFFSET -27.841497 0.000000 -0.000002
							CHANNELS 3 Xrotation Yrotation Zrotation
							JOINT rightHand
							{
								OFFSET -28.328812 0.000000 -0.000001
								CHANNELS 3 Xrotation Yrotation Zrotation
								JOINT rightThumbProximal
								{
									OFFSET -2.464798 -1.573990 2.681911
									CHANNELS 6 Xposition Yposition Zposition Xrotation Yrotation Zrotation
									JOINT rightThumbIntermediate
									{
										OFFSET -3.244781 -1.873383 1.873376
										CHANNELS 3 Xrotation Yrotation Zrotation
										JOINT rightThumbDistal
										{
											OFFSET -2.646263 -1.527817 1.527818
											CHANNELS 6 Xposition Yposition Zposition Xrotation Yrotation Zrotation
											JOINT rightHandThumb4
											{
												OFFSET -1.994591 -1.151581 1.151575
												CHANNELS 6 Xposition Yposition Zposition Xrotation Yrotation Zrotation
												End Site
												{
													OFFSET -1.860176 -1.142715 1.365483
												}
											}
										}
									}
								}
								JOINT rightIndexProximal
								{
									OFFSET -9.108299 -0.517883 2.259803
									CHANNELS 6 Xposition Yposition Zposition Xrotation Yrotation Zrotation
									JOINT rightIndexIntermediate
									{
										OFFSET -3.699997 0.000000 0.000000
										CHANNELS 3 Xrotation Yrotation Zrotation
										JOINT rightIndexDistal
										{
											OFFSET -2.850006 0.000000 0.000000
											CHANNELS 3 Xrotation Yrotation Zrotation
											JOINT rightHandIndex4
											{
												OFFSET -2.772194 0.000000 0.000000
												CHANNELS 3 Xrotation Yrotation Zrotation
												End Site
												{
													OFFSET -2.772202 0.000000 -0.000484
												}
											}
										}
									}
								}
								JOINT rightMiddleProximal
								{
									OFFSET -9.532501 0.000000 -0.000000
									CHANNELS 6 Xposition Yposition Zposition Xrotation Yrotation Zrotation
									JOINT rightMiddleIntermediate
									{
										OFFSET -3.699997 0.000000 0.000000
										CHANNELS 3 Xrotation Yrotation Zrotation
										JOINT rightMiddleDistal
										{
											OFFSET -2.949997 0.000000 0.000000
											CHANNELS 3 Xrotation Yrotation Zrotation
											JOINT rightHandMiddle4
											{
												OFFSET -2.946594 0.000000 0.000000
												CHANNELS 3 Xrotation Yrotation Zrotation
												End Site
												{
													OFFSET -2.946602 0.000000 -0.000982
												}
											}
										}
									}
								}
								JOINT rightRingProximal
								{
									OFFSET -9.103600 -0.043106 -1.865100
									CHANNELS 6 Xposition Yposition Zposition Xrotation Yrotation Zrotation
									JOINT rightRingIntermediate
									{
										OFFSET -3.379303 0.000000 0.000000
										CHANNELS 3 Xrotation Yrotation Zrotation
										JOINT rightRingDistal
										{
											OFFSET -2.889694 0.000000 0.000000
											CHANNELS 3 Xrotation Yrotation Zrotation
											JOINT rightHandRing4
											{
												OFFSET -2.638802 0.000000 0.000000
												CHANNELS 3 Xrotation Yrotation Zrotation
												End Site
												{
													OFFSET -2.638802 0.000000 0.004218
												}
											}
										}
									}
								}
								JOINT rightLittleProximal
								{
									OFFSET -8.076698 -0.486725 -3.806299
									CHANNELS 6 Xposition Yposition Zposition Xrotation Yrotation Zrotation
									JOINT rightLittleIntermediate
									{
										OFFSET -3.600006 0.000000 0.000000
										CHANNELS 3 Xrotation Yrotation Zrotation
										JOINT rightLittleDistal
										{
											OFFSET -2.099998 0.000000 0.000000
											CHANNELS 3 Xrotation Yrotation Zrotation
											JOINT rightHandPinky4
											{
												OFFSET -2.115791 0.000000 0.000000
												CHANNELS 3 Xrotation Yrotation Zrotation
												End Site
												{
													OFFSET -2.115799 0.000000 0.000174
												}
											}
										}
									}
								}
							}
						}
					}
				}
				JOINT leftShoulder
				{
					OFFSET 4.570400 11.014679 -2.160816
					CHANNELS 6 Xposition Yposition Zposition Xrotation Yrotation Zrotation
					JOINT leftUpperArm
					{
						OFFSET 10.592373 -0.524597 -2.232116
						CHANNELS 3 Xrotation Yrotation Zrotation
						JOINT leftLowerArm
						{
							OFFSET 27.841488 0.000000 0.000001
							CHANNELS 3 Xrotation Yrotation Zrotation
							JOINT leftHand
							{
								OFFSET 28.328808 0.000000 -0.000000
								CHANNELS 3 Xrotation Yrotation Zrotation
								JOINT leftThumbProximal
								{
									OFFSET 2.466103 -1.576202 2.681698
									CHANNELS 6 Xposition Yposition Zposition Xrotation Yrotation Zrotation
									JOINT leftThumbIntermediate
									{
										OFFSET 3.243317 -1.872528 1.872530
										CHANNELS 3 Xrotation Yrotation Zrotation
										JOINT leftThumbDistal
										{
											OFFSET 2.647881 -1.528763 1.528754
											CHANNELS 6 Xposition Yposition Zposition Xrotation Yrotation Zrotation
											JOINT leftHandThumb4
											{
												OFFSET 1.998924 -1.154083 1.154080
												CHANNELS 6 Xposition Yposition Zposition Xrotation Yrotation Zrotation
												End Site
												{
													OFFSET 1.884041 -1.149155 1.337651
												}
											}
										}
									}
								}
								JOINT leftIndexProximal
								{
									OFFSET 9.109299 -0.518005 2.259900
									CHANNELS 6 Xposition Yposition Zposition Xrotation Yrotation Zrotation
									JOINT leftIndexIntermediate
									{
										OFFSET 3.699997 0.000000 0.000000
										CHANNELS 3 Xrotation Yrotation Zrotation
										JOINT leftIndexDistal
										{
											OFFSET 2.850006 0.000000 0.000000
											CHANNELS 3 Xrotation Yrotation Zrotation
											JOINT leftHandIndex4
											{
												OFFSET 2.774895 0.000000 0.000000
												CHANNELS 3 Xrotation Yrotation Zrotation
												End Site
												{
													OFFSET 2.774902 0.000000 -0.000072
												}
											}
										}
									}
								}
								JOINT leftMiddleProximal
								{
									OFFSET 9.533401 0.000000 0.000000
									CHANNELS 6 Xposition Yposition Zposition Xrotation Yrotation Zrotation
									JOINT leftMiddleIntermediate
									{
										OFFSET 3.699997 0.000000 0.000000
										CHANNELS 3 Xrotation Yrotation Zrotation
										JOINT leftMiddleDistal
										{
											OFFSET 2.949997 0.000000 0.000000
											CHANNELS 3 Xrotation Yrotation Zrotation
											JOINT leftHandMiddle4
											{
												OFFSET 2.952896 0.000000 0.000000
												CHANNELS 3 Xrotation Yrotation Zrotation
												End Site
												{
													OFFSET 2.952904 0.000000 0.000165
												}
											}
										}
									}
								}
								JOINT leftRingProximal
								{
									OFFSET 9.104500 -0.042999 -1.865101
									CHANNELS 6 Xposition Yposition Zposition Xrotation Yrotation Zrotation
									JOINT leftRingIntermediate
									{
										OFFSET 3.149994 0.000000 0.000000
										CHANNELS 3 Xrotation Yrotation Zrotation
										JOINT leftRingDistal
										{
											OFFSET 2.950005 0.000000 0.000000
											CHANNELS 3 Xrotation Yrotation Zrotation
											JOINT leftHandRing4
											{
												OFFSET 2.644302 0.000000 0.000000
												CHANNELS 3 Xrotation Yrotation Zrotation
												End Site
												{
													OFFSET 2.644302 0.000000 0.000083
												}
											}
										}
									}
								}
								JOINT leftLittleProximal
								{
									OFFSET 8.077805 -0.486893 -3.806302
									CHANNELS 6 Xposition Yposition Zposition Xrotation Yrotation Zrotation
									JOINT leftLittleIntermediate
									{
										OFFSET 3.600006 0.000000 0.000000
										CHANNELS 3 Xrotation Yrotation Zrotation
										JOINT leftLittleDistal
										{
											OFFSET 2.099998 0.000000 0.000000
											CHANNELS 3 Xrotation Yrotation Zrotation
											JOINT leftHandPinky4
											{
												OFFSET 2.125496 0.000000 0.000000
												CHANNELS 3 Xrotation Yrotation Zrotation
												End Site
												{
													OFFSET 2.125504 0.000000 -0.001254
												}
											}
										}
									}
								}
							}
						}
					}
				}
			}
		}
	}
	JOINT rightUpperLeg
	{
		OFFSET -8.207800 -6.751701 -1.599544
		CHANNELS 6 Xposition Yposition Zposition Xrotation Yrotation Zrotation
		JOINT rightLowerLeg
		{
			OFFSET 0.000004 -44.370152 0.345934
			CHANNELS 3 Xrotation Yrotation Zrotation
			JOINT rightFoot
			{
				OFFSET 0.000004 -44.423664 -3.043535
				CHANNELS 3 Xrotation Yrotation Zrotation
				JOINT rightToes
				{
					OFFSET 0.000001 -8.728691 10.710592
					CHANNELS 3 Xrotation Yrotation Zrotation
					JOINT rightToesEnd
					{
						OFFSET 0.000000 -0.000665 9.278101
						CHANNELS 3 Xrotation Yrotation Zrotation
						End Site
						{
							OFFSET 0.000000 -0.000665 9.278103
						}
					}
				}
			}
		}
	}
	JOINT leftUpperLeg
	{
		OFFSET 8.207800 -6.751701 -1.599544
		CHANNELS 6 Xposition Yposition Zposition Xrotation Yrotation Zrotation
		JOINT leftLowerLeg
		{
			OFFSET 0.000004 -44.370037 0.346940
			CHANNELS 3 Xrotation Yrotation Zrotation
			JOINT leftFoot
			{
				OFFSET 0.000004 -44.423611 -3.044388
				CHANNELS 3 Xrotation Yrotation Zrotation
				JOINT leftToes
				{
					OFFSET 0.000001 -8.728690 10.710592
					CHANNELS 3 Xrotation Yrotation Zrotation
					JOINT leftToesEnd
					{
						OFFSET 0.000000 -0.000680 9.278101
						CHANNELS 3 Xrotation Yrotation Zrotation
						End Site
						{
							OFFSET 0.000000 -0.000680 9.278101
						}
					}
				}
			}
		}
	}
}
MOTION
Frames: 4
Frame Time: 0.033333
-0.434175 92.283356 2.997385 -8.955747 6.695086 -7.360579 0.000002 10.181547 0.131523 7.290423 -22.004855 -4.806541 1.895266 -2.965712 5.193446 2.133351 -2.882769 5.151857 -0.000002 16.740366 -2.049021 -0.135697 -5.341693 -4.570608 0.000001 9.617825 1.684975 1.746125 -34.185708 10.184404 -0.000003 22.037384 7.501071 -0.000001 0.000002 -0.000001 -4.570001 11.014876 -2.160839 -0.486264 -5.156516 -4.566041 -58.615748 -37.293512 15.144385 -0.000838 86.472524 0.000924 28.307850 1.822433 -36.216190 -2.464804 -1.573987 2.681904 -1.849238 -3.581787 -6.586135 4.637178 -8.634125 -0.225385 -2.646276 -1.527808 1.527824 -1.273761 0.137295 -2.094879 -1.994613 -1.151582 1.151589 0.000001 -0.000001 -0.000000 -9.108297 -0.517876 2.259801 0.345090 -2.167309 18.091815 0.181968 -1.583433 13.110453 0.017691 -0.496915 4.081116 0.000004 -0.000001 0.000000 -9.532503 0.000007 -0.000002 0.539567 -2.690192 22.678550 0.313137 -2.067002 17.226908 0.071031 -0.993483 8.180614 0.000001 -0.000003 -0.000002 -9.103607 -0.043106 -1.865108 0.840696 -3.319292 28.418445 0.525261 -2.655751 22.371926 0.187590 -1.607353 13.312345 -0.000001 -0.000000 0.000000 -8.076689 -0.486718 -3.806296 1.126460 -3.799314 33.019115 0.731925 -3.110215 26.478808 0.320646 -2.091042 17.433768 0.000001 0.000003 0.000001 4.570400 11.014702 -2.160814 0.704367 -6.508314 -5.347340 -42.823111 -51.503492 -63.322977 -0.000067 -93.035011 -0.000010 68.180348 -2.645698 2.963114 2.466108 -1.576174 2.681695 -1.539957 3.690257 6.142347 3.939046 7.948713 0.746805 2.647886 -1.528767 1.528751 -0.579463 1.575015 2.538713 1.998924 -1.154103 1.154068 -0.000003 -0.000002 0.000003 9.109301 -0.517997 2.259899 0.392202 2.294947 -19.394925 0.325220 2.095152 -17.646410 0.298275 2.008541 -16.893766 0.000002 0.000004 -0.000002 9.533404 0.000005 0.000003 0.419687 2.371544 -20.070352 0.354186 2.184047 -18.422060 0.373210 2.240300 -18.914824 -0.000003 -0.000000 0.000001 9.104513 -0.043002 -1.865099 0.457122 2.471507 -20.956373 0.389943 2.288475 -19.338023 0.479052 2.527961 -21.459005 0.000003 -0.000001 0.000002 8.077803 -0.486901 -3.806301 1.975294 6.323617 -21.262220 0.422471 -1.686692 -20.548240 0.573649 2.756276 -23.511034 0.000001 0.000005 -0.000007 -8.207798 -6.751708 -1.599537 -26.858223 5.085601 18.093770 49.431326 -9.698061 7.245260 -15.634855 -0.706266 -8.073931 -0.764354 0.000002 0.000003 -0.000000 -0.000001 0.000000 8.207800 -6.751706 -1.599543 1.983822 10.426752 8.781303 58.039430 0.835517 -6.130366 -14.689491 -0.048893 0.201211 -24.812168 -0.028332 1.668117 0.000000 0.000000 -0.000000 
-0.405545 92.127563 3.455744 -8.186322 6.122307 -7.611635 0.000001 10.181565 0.131524 7.548542 -21.516768 -5.088541 2.024304 -2.899369 5.292470 2.262096 -2.810517 5.247879 -0.000001 16.740360 -2.049017 -0.478264 -4.906871 -4.012261 0.000005 9.617850 1.684979 0.670883 -31.439470 10.392975 -0.000001 22.037384 7.501072 -0.000001 -0.000001 -0.000000 -4.570001 11.014859 -2.160838 -0.256451 -4.734086 -2.178594 -60.793396 -38.908610 15.397813 0.000753 93.471979 -0.000667 27.858890 3.920148 -38.695081 -2.464813 -1.574000 2.681910 -1.849247 -3.581792 -6.586135 4.637175 -8.634132 -0.225386 -2.646268 -1.527791 1.527821 -1.273757 0.137297 -2.094876 -1.994590 -1.151572 1.151575 -0.000001 -0.000003 -0.000000 -9.108299 -0.517877 2.259797 0.301102 -2.027830 16.890185 0.165753 -1.512122 12.510011 0.012865 -0.423960 3.481100 -0.000003 -0.000003 0.000003 -9.532506 0.000012 -0.000005 0.470430 -2.518532 21.157022 0.286291 -1.978402 16.466215 0.058492 -0.901877 7.421845 -0.000002 0.000001 0.000002 -9.103604 -0.043121 -1.865106 0.732849 -3.112065 26.495999 0.481655 -2.547295 21.410847 0.161660 -1.493624 12.354431 -0.000001 -0.000001 0.000002 -8.076703 -0.486725 -3.806300 0.982255 -3.568076 30.774777 0.672303 -2.987701 25.358073 0.281077 -1.960720 16.314836 0.000001 -0.000001 -0.000002 4.570401 11.014662 -2.160812 0.748770 -6.994288 -4.341645 -43.282369 -49.899740 -63.163923 0.000183 -92.897505 0.000217 65.994019 -2.262877 2.868973 2.466102 -1.576202 2.681691 -1.539953 3.690261 6.142348 3.939048 7.948709 0.746807 2.647875 -1.528754 1.528763 -0.579464 1.575017 2.538714 1.998912 -1.154087 1.154084 0.000004 -0.000003 0.000002 9.109295 -0.518008 2.259901 0.374284 2.243442 -18.942457 0.317001 2.069181 -17.420215 0.290412 1.982436 -16.667608 -0.000002 0.000001 -0.000002 9.533414 0.000005 -0.000007 0.429399 2.397924 -20.303630 0.358650 2.197389 -18.538889 0.377758 2.253578 -19.031229 -0.000001 0.000001 0.000001 9.104506 -0.042995 -1.865107 0.505334 2.593733 -22.047062 0.412014 2.350472 -19.884212 0.503364 2.588858 -22.003415 0.000001 0.000001 -0.000003 8.077799 -0.486898 -3.806306 2.174934 6.473311 -23.053476 0.460803 -1.586784 -21.433907 0.617160 2.854060 -24.399925 -0.000001 0.000001 -0.000000 -8.207797 -6.751700 -1.599541 -27.461334 4.749220 18.185543 49.892814 -9.777517 7.279160 -16.146919 -0.210377 -8.178033 -0.360160 0.000003 0.000001 -0.000000 -0.000001 -0.000000 8.207799 -6.751687 -1.599543 1.684989 10.357791 8.548913 57.439323 2.613139 -5.739767 -13.732038 -0.105918 0.420879 -27.582788 -0.020399 1.420040 0.000001 0.000001 0.000000 
-0.279550 92.649361 3.554610 -6.984198 5.946766 -8.043180 0.000001 10.181544 0.131526 8.515813 -21.284405 -4.881960 2.043308 -2.883472 5.530296 2.288693 -2.782035 5.489462 0.000001 16.740366 -2.049021 -1.200719 -4.361650 -3.336805 -0.000001 9.617870 1.684977 -1.498615 -27.988700 10.332077 -0.000001 22.037354 7.501073 -0.000001 -0.000001 0.000001 -4.570000 11.014868 -2.160841 -0.159274 -4.256328 -1.444908 -61.817030 -38.234730 15.054741 0.000599 95.183221 -0.000568 28.115791 4.371154 -38.397572 -2.464798 -1.573996 2.681907 -1.849240 -3.581791 -6.586137 4.637179 -8.634130 -0.225388 -2.646270 -1.527817 1.527812 -1.273757 0.137304 -2.094872 -1.994621 -1.151596 1.151594 0.000003 -0.000002 0.000003 -9.108291 -0.517878 2.259804 0.312395 -2.064642 17.206464 0.169945 -1.530904 12.668077 0.014073 -0.443166 3.639030 0.000000 -0.000002 0.000004 -9.532492 0.000005 -0.000003 0.463206 -2.499800 20.992002 0.283427 -1.968733 16.383395 0.057198 -0.891971 7.339814 -0.000000 0.000000 0.000002 -9.103596 -0.043118 -1.865104 0.691735 -3.028307 25.728433 0.464700 -2.503711 21.026439 0.151862 -1.448141 11.972354 -0.000001 -0.000002 0.000004 -8.076685 -0.486731 -3.806301 0.905828 -3.436738 29.523827 0.640110 -2.918906 24.733273 0.260134 -1.887737 15.691000 -0.000000 0.000002 0.000000 4.570401 11.014662 -2.160816 0.845819 -7.894111 -2.776005 -46.472515 -49.495119 -63.594594 0.003728 -89.886123 0.003092 67.279658 -2.086001 4.327552 2.466105 -1.576190 2.681684 -1.539957 3.690257 6.142343 3.939047 7.948719 0.746805 2.647899 -1.528751 1.528757 -0.579461 1.575013 2.538714 1.998925 -1.154063 1.154087 -0.000003 0.000001 -0.000000 9.109307 -0.518011 2.259892 0.349420 2.169670 -18.296316 0.305459 2.031981 -17.097225 0.279330 1.945118 -16.344639 0.000002 0.000002 0.000001 9.533414 0.000001 -0.000008 0.428657 2.395859 -20.285276 0.358289 2.196334 -18.529711 0.377420 2.252526 -19.022075 0.000003 0.000003 -0.000001 9.104509 -0.043002 -1.865112 0.540597 2.679079 -22.813771 0.427921 2.393909 -20.268134 0.520778 2.631540 -22.386051 0.000004 0.000002 -0.000001 8.077813 -0.486910 -3.806323 2.334926 6.586409 -24.460260 0.491992 -1.508780 -22.129113 0.652358 2.930352 -25.097759 0.000002 0.000001 -0.000000 -8.207800 -6.751709 -1.599536 -27.833286 4.949416 18.334885 48.255894 -9.820157 7.279932 -15.458660 -0.464541 -8.239962 -0.399960 -0.000000 -0.000000 -0.000000 -0.000001 -0.000000 8.207799 -6.751713 -1.599543 2.074044 9.076305 7.690513 54.422981 3.476253 -5.202026 -13.601779 -0.080827 0.049448 -29.275769 -0.036062 1.889749 0.000001 0.000000 0.000000 
0.019725 93.997154 3.341578 -5.143172 6.154050 -8.434438 -0.000000 10.181555 0.131524 9.921582 -21.467727 -4.319898 2.006478 -2.935258 5.902287 2.269616 -2.816222 5.868550 -0.000000 16.740366 -2.049020 -2.501422 -3.685918 -2.551088 0.000000 9.617841 1.684978 -4.528561 -23.655196 9.873636 0.000002 22.037384 7.501074 -0.000000 0.000002 0.000000 -4.570000 11.014905 -2.160842 -0.173475 -3.732172 -2.422496 -60.706052 -34.906221 14.477409 0.002847 91.140774 -0.002808 29.204373 2.892003 -35.860617 -2.464812 -1.573997 2.681908 -1.849244 -3.581789 -6.586136 4.637168 -8.634131 -0.225386 -2.646278 -1.527806 1.527821 -1.273758 0.137306 -2.094873 -1.994602 -1.151587 1.151582 -0.000000 -0.000007 0.000001 -9.108303 -0.517876 2.259804 0.367888 -2.235846 18.685354 0.190255 -1.618582 13.407025 0.020363 -0.532931 4.377469 0.000005 -0.000003 0.000001 -9.532511 0.000001 -0.000003 0.499771 -2.593008 21.815095 0.297712 -2.016655 16.794288 0.063804 -0.941620 7.750819 0.000003 -0.000002 -0.000000 -9.103615 -0.043105 -1.865102 0.691867 -3.028574 25.730767 0.464707 -2.503722 21.026536 0.151906 -1.448374 11.974395 0.000001 -0.000003 -0.000001 -8.076712 -0.486727 -3.806298 0.866922 -3.367233 28.868136 0.623536 -2.882701 24.405728 0.249474 -1.849378 15.363961 0.000003 -0.000003 -0.000002 4.570402 11.014694 -2.160817 0.998537 -8.777114 -0.907491 -52.436424 -50.267501 -64.825626 -0.000068 -83.987326 -0.000079 71.170421 -1.554065 7.107888 2.466101 -1.576195 2.681708 -1.539952 3.690257 6.142344 3.939047 7.948715 0.746808 2.647880 -1.528769 1.528750 -0.579467 1.575010 2.538715 1.998932 -1.154093 1.154069 -0.000003 -0.000001 -0.000000 9.109305 -0.518009 2.259909 0.309755 2.045905 -17.217968 0.286633 1.969794 -16.558098 0.261340 1.882661 -15.805592 0.000003 0.000001 -0.000000 9.533399 0.000018 0.000005 0.406184 2.334236 -19.740964 0.347910 2.165174 -18.257087 0.366799 2.221563 -18.750442 0.000000 -0.000002 0.000001 9.104514 -0.042988 -1.865092 0.546378 2.692782 -22.937199 0.430513 2.400891 -20.329928 0.523607 2.638384 -22.447668 0.000003 -0.000001 0.000002 8.077808 -0.486889 -3.806296 2.411352 6.638412 -25.123942 0.507030 -1.472125 -22.457005 0.669295 2.966181 -25.426923 -0.000001 -0.000001 0.000001 -8.207795 -6.751699 -1.599540 -27.859449 5.695913 18.169217 43.999700 -9.843715 7.055351 -13.259156 -1.079287 -8.152970 -0.924277 0.000001 -0.000001 0.000000 -0.000000 -0.000000 8.207800 -6.751705 -1.599544 3.004128 6.708764 6.174061 48.659292 4.164467 -4.514497 -13.369820 0.017723 -0.374136 -29.534380 -0.084815 2.898643 -0.000000 -0.000001 -0.000000 
